<svg id="visual" viewBox="0 0 960 540" width="960" height="540" xmlns="http://www.w3.org/2000/svg" xmlns:xlink="http://www.w3.org/1999/xlink" version="1.1"><rect x="0" y="0" width="960" height="540" fill="#294c60"></rect><defs><linearGradient id="grad1_0" x1="43.8%" y1="0%" x2="100%" y2="100%"><stop offset="14.444444444444446%" stop-color="#d7c9aa" stop-opacity="1"></stop><stop offset="85.55555555555554%" stop-color="#d7c9aa" stop-opacity="1"></stop></linearGradient></defs><defs><linearGradient id="grad1_1" x1="43.8%" y1="0%" x2="100%" y2="100%"><stop offset="14.444444444444446%" stop-color="#d7c9aa" stop-opacity="1"></stop><stop offset="85.55555555555554%" stop-color="#8aa389" stop-opacity="1"></stop></linearGradient></defs><defs><linearGradient id="grad1_2" x1="43.8%" y1="0%" x2="100%" y2="100%"><stop offset="14.444444444444446%" stop-color="#497978" stop-opacity="1"></stop><stop offset="85.55555555555554%" stop-color="#8aa389" stop-opacity="1"></stop></linearGradient></defs><defs><linearGradient id="grad1_3" x1="43.8%" y1="0%" x2="100%" y2="100%"><stop offset="14.444444444444446%" stop-color="#497978" stop-opacity="1"></stop><stop offset="85.55555555555554%" stop-color="#294c60" stop-opacity="1"></stop></linearGradient></defs><defs><linearGradient id="grad2_0" x1="0%" y1="0%" x2="56.3%" y2="100%"><stop offset="14.444444444444446%" stop-color="#d7c9aa" stop-opacity="1"></stop><stop offset="85.55555555555554%" stop-color="#d7c9aa" stop-opacity="1"></stop></linearGradient></defs><defs><linearGradient id="grad2_1" x1="0%" y1="0%" x2="56.3%" y2="100%"><stop offset="14.444444444444446%" stop-color="#8aa389" stop-opacity="1"></stop><stop offset="85.55555555555554%" stop-color="#d7c9aa" stop-opacity="1"></stop></linearGradient></defs><defs><linearGradient id="grad2_2" x1="0%" y1="0%" x2="56.3%" y2="100%"><stop offset="14.444444444444446%" stop-color="#8aa389" stop-opacity="1"></stop><stop offset="85.55555555555554%" stop-color="#497978" stop-opacity="1"></stop></linearGradient></defs><defs><linearGradient id="grad2_3" x1="0%" y1="0%" x2="56.3%" y2="100%"><stop offset="14.444444444444446%" stop-color="#294c60" stop-opacity="1"></stop><stop offset="85.55555555555554%" stop-color="#497978" stop-opacity="1"></stop></linearGradient></defs><g transform="translate(960, 0)"><path d="M0 351C-38.7 351 -77.4 351 -108.5 333.8C-139.5 316.7 -162.8 282.4 -184.6 254C-206.3 225.6 -226.5 203.1 -245.9 178.7C-265.4 154.3 -284.1 128 -301.5 98C-318.9 67.9 -334.9 33.9 -351 0L0 0Z" fill="#34636e"></path><path d="M0 263.3C-29 263.2 -58.1 263.2 -81.3 250.4C-104.6 237.5 -122.1 211.8 -138.4 190.5C-154.7 169.2 -169.9 152.3 -184.5 134C-199 115.7 -213.1 96 -226.1 73.5C-239.2 50.9 -251.2 25.5 -263.2 0L0 0Z" fill="#678e80"></path><path d="M0 175.5C-19.4 175.5 -38.7 175.5 -54.2 166.9C-69.7 158.3 -81.4 141.2 -92.3 127C-103.2 112.8 -113.2 101.5 -123 89.3C-132.7 77.1 -142 64 -150.7 49C-159.4 33.9 -167.5 17 -175.5 0L0 0Z" fill="#b0b697"></path><path d="M0 87.8C-9.7 87.7 -19.4 87.7 -27.1 83.5C-34.9 79.2 -40.7 70.6 -46.1 63.5C-51.6 56.4 -56.6 50.8 -61.5 44.7C-66.3 38.6 -71 32 -75.4 24.5C-79.7 17 -83.7 8.5 -87.7 0L0 0Z" fill="#d7c9aa"></path></g><g transform="translate(0, 540)"><path d="M0 -351C25.5 -313.1 50.9 -275.3 87.8 -270.1C124.6 -264.9 172.9 -292.5 206.3 -284C239.8 -275.4 258.4 -230.8 264.5 -192.2C270.7 -153.6 264.4 -121 276.8 -89.9C289.1 -58.9 320 -29.4 351 0L0 0Z" fill="#34636e"></path><path d="M0 -263.2C19.1 -234.8 38.2 -206.4 65.8 -202.6C93.5 -198.7 129.7 -219.4 154.7 -213C179.8 -206.6 193.8 -173.1 198.4 -144.2C203 -115.2 198.3 -90.7 207.6 -67.4C216.8 -44.2 240 -22.1 263.3 0L0 0Z" fill="#678e80"></path><path d="M0 -175.5C12.7 -156.6 25.5 -137.6 43.9 -135.1C62.3 -132.5 86.4 -146.2 103.2 -142C119.9 -137.7 129.2 -115.4 132.3 -96.1C135.4 -76.8 132.2 -60.5 138.4 -45C144.5 -29.4 160 -14.7 175.5 0L0 0Z" fill="#b0b697"></path><path d="M0 -87.7C6.4 -78.3 12.7 -68.8 21.9 -67.5C31.2 -66.2 43.2 -73.1 51.6 -71C59.9 -68.9 64.6 -57.7 66.1 -48.1C67.7 -38.4 66.1 -30.2 69.2 -22.5C72.3 -14.7 80 -7.4 87.8 0L0 0Z" fill="#d7c9aa"></path></g></svg>