<svg id="visual" viewBox="0 0 900 450" width="900" height="450" xmlns="http://www.w3.org/2000/svg" xmlns:xlink="http://www.w3.org/1999/xlink" version="1.1"><rect x="0" y="0" width="900" height="450" fill="#d7c9aa"></rect><path d="M0 330L21.5 325C43 320 86 310 128.8 312.7C171.7 315.3 214.3 330.7 257.2 333.7C300 336.7 343 327.3 385.8 324C428.7 320.7 471.3 323.3 514.2 330.8C557 338.3 600 350.7 642.8 346.3C685.7 342 728.3 321 771.2 317.7C814 314.3 857 328.7 878.5 335.8L900 343L900 451L878.5 451C857 451 814 451 771.2 451C728.3 451 685.7 451 642.8 451C600 451 557 451 514.2 451C471.3 451 428.7 451 385.8 451C343 451 300 451 257.2 451C214.3 451 171.7 451 128.8 451C86 451 43 451 21.5 451L0 451Z" fill="#37b437"></path><path d="M0 357L21.5 359.8C43 362.7 86 368.3 128.8 364.8C171.7 361.3 214.3 348.7 257.2 348.7C300 348.7 343 361.3 385.8 368.8C428.7 376.3 471.3 378.7 514.2 378.8C557 379 600 377 642.8 375C685.7 373 728.3 371 771.2 364.3C814 357.7 857 346.3 878.5 340.7L900 335L900 451L878.5 451C857 451 814 451 771.2 451C728.3 451 685.7 451 642.8 451C600 451 557 451 514.2 451C471.3 451 428.7 451 385.8 451C343 451 300 451 257.2 451C214.3 451 171.7 451 128.8 451C86 451 43 451 21.5 451L0 451Z" fill="#009f71"></path><path d="M0 399L21.5 394.5C43 390 86 381 128.8 377.3C171.7 373.7 214.3 375.3 257.2 377.2C300 379 343 381 385.8 379.5C428.7 378 471.3 373 514.2 369.2C557 365.3 600 362.7 642.8 364.3C685.7 366 728.3 372 771.2 376.5C814 381 857 384 878.5 385.5L900 387L900 451L878.5 451C857 451 814 451 771.2 451C728.3 451 685.7 451 642.8 451C600 451 557 451 514.2 451C471.3 451 428.7 451 385.8 451C343 451 300 451 257.2 451C214.3 451 171.7 451 128.8 451C86 451 43 451 21.5 451L0 451Z" fill="#008482"></path><path d="M0 378L21.5 379.3C43 380.7 86 383.3 128.8 385.7C171.7 388 214.3 390 257.2 388.8C300 387.7 343 383.3 385.8 387C428.7 390.7 471.3 402.3 514.2 401.7C557 401 600 388 642.8 388.8C685.7 389.7 728.3 404.3 771.2 408.5C814 412.7 857 406.3 878.5 403.2L900 400L900 451L878.5 451C857 451 814 451 771.2 451C728.3 451 685.7 451 642.8 451C600 451 557 451 514.2 451C471.3 451 428.7 451 385.8 451C343 451 300 451 257.2 451C214.3 451 171.7 451 128.8 451C86 451 43 451 21.5 451L0 451Z" fill="#116878"></path><path d="M0 413L21.5 416.7C43 420.3 86 427.7 128.8 427C171.7 426.3 214.3 417.7 257.2 416.5C300 415.3 343 421.7 385.8 424.3C428.7 427 471.3 426 514.2 422.5C557 419 600 413 642.8 412.7C685.7 412.3 728.3 417.7 771.2 419.7C814 421.7 857 420.3 878.5 419.7L900 419L900 451L878.5 451C857 451 814 451 771.2 451C728.3 451 685.7 451 642.8 451C600 451 557 451 514.2 451C471.3 451 428.7 451 385.8 451C343 451 300 451 257.2 451C214.3 451 171.7 451 128.8 451C86 451 43 451 21.5 451L0 451Z" fill="#294c60"></path></svg>