<svg width="134" height="148" viewBox="0 0 134 148" fill="none" xmlns="http://www.w3.org/2000/svg">
<path d="M87.0858 32.8825C-31.7527 46.9252 -26.2722 137.443 87.0858 148C60.0003 135.433 -68.4053 93.2061 87.0858 32.8825Z" fill="white"/>
<path d="M41.5932 78.1534C41.5932 82.4396 38.1016 85.9141 33.7945 85.9141C29.4874 85.9141 25.9958 82.4396 25.9958 78.1534C25.9958 73.8673 29.4874 70.3927 33.7945 70.3927C38.1016 70.3927 41.5932 73.8673 41.5932 78.1534Z" fill="white"/>
<path d="M25.9958 100.791C25.9957 85.3168 39.2728 84.5417 57.3868 97.9768C33.0243 90.3788 32.6857 93.0379 32.6857 100.791C32.6857 119.983 68.2525 107.006 57.9014 128.598C50.6969 107.855 25.9959 121.423 25.9958 100.791Z" fill="white"/>
<path d="M77.9873 80.0936C77.9873 83.3082 80.3151 85.9141 83.1865 85.9141C86.0579 85.9141 88.3856 83.3082 88.3856 80.0936C88.3856 76.879 86.0579 74.2731 83.1865 74.2731C80.3151 74.2731 77.9873 76.879 77.9873 80.0936Z" fill="white"/>
<path d="M90.9852 103.316C90.9853 88.0588 78.2149 84.8646 60.3361 98.1119C75.6607 92.4344 85.3662 90.3191 85.3662 103.316C85.3662 122.241 52.8231 102.781 63.0398 124.071C64.0612 107.512 90.9851 123.66 90.9852 103.316Z" fill="white"/>
<path d="M89.6854 32.9024C99.5798 32.7374 119.863 32.9024 114.916 62.632C107.495 47.7826 112.442 42.3378 89.6854 32.9024Z" fill="#34B334"/>
<path d="M83.9538 0.0689994C94.2958 5.06845 99.8771 13.7413 89.5778 28.8711C92.3755 23.175 90.2751 11.5702 83.9538 0.0689994Z" fill="#34B334"/>
<path d="M65.6491 20.8335C71.6795 18.4648 83.4483 17.849 87.225 31.7534C79.2183 29.4677 82.7364 19.9652 65.6491 20.8335Z" fill="#34B334"/>
<path d="M57.6074 0.107234C66.4442 -0.747882 86.4267 3.02301 87.108 29.3396C85.6444 20.3249 75.9846 2.73635 57.6074 0.107234Z" fill="#34B334"/>
<path d="M89.5049 33.969C97.3114 39.5029 107.866 43.9717 96.8088 63.9771C94.0282 45.9722 98.8191 47.5051 89.5049 33.969Z" fill="#34B334"/>
<path d="M91.7843 30.3332C100.151 26.1466 121.192 22.1659 131.654 47.2159C116.41 36.9698 110.823 25.8655 91.7843 30.3332Z" fill="#34B334"/>
<path d="M91.7858 28.8223C97.014 20.2775 109.373 8.96219 134 25.9668C118.42 27.9674 114.399 15.464 91.7858 28.8223Z" fill="#34B334"/>
</svg>
