<svg width="142" height="152" viewBox="0 0 142 152" fill="none" xmlns="http://www.w3.org/2000/svg">
<path d="M96 33.0097C-22.4632 46.9771 -41.1946 142.822 96 151.01C53 142.01 -60.9384 91.7689 96 33.0097Z" fill="black"/>
<path d="M43 79.5097C43 83.6518 39.6421 87.0097 35.5 87.0097C31.3579 87.0097 28 83.6518 28 79.5097C28 75.3676 31.3579 72.0097 35.5 72.0097C39.6421 72.0097 43 75.3676 43 79.5097Z" fill="black"/>
<path d="M34 100.893C33.9999 85.2276 46.5711 81.948 64.1709 95.5493C49.0854 89.7202 39.5314 92.1491 39.5314 100.893C39.5314 120.323 74.2282 109.151 64.1709 131.01C63.1654 114.008 34.0001 121.78 34 100.893Z" fill="black"/>
<path d="M89 83.5097C89 86.5473 91.4624 89.0097 94.5 89.0097C97.5376 89.0097 100 86.5473 100 83.5097C100 80.4721 97.5376 78.0097 94.5 78.0097C91.4624 78.0097 89 80.4721 89 83.5097Z" fill="black"/>
<path d="M98 103.786C98.0001 88.2413 85.5674 84.9869 68.1616 98.4837C83.0809 92.6993 92.5296 95.1096 92.5296 103.786C92.5296 123.067 58.8928 116.319 68.8392 138.01C69.8337 121.139 97.9999 124.513 98 103.786Z" fill="black"/>
<path d="M97 33.0132C107 32.8465 129.1 38.6132 127.5 67.0132C126.667 57.1798 117.4 37.4132 97 33.0132Z" fill="black"/>
<path d="M94.0101 1.01149C99.2309 4.75102 108.422 16.1801 96.7292 30.218C100.062 24.8267 102.847 11.0852 94.0101 1.01149Z" fill="black"/>
<path d="M73.0006 21.4124C78.2077 19.5664 90.7082 18.4286 94.4656 32.3292C92.4385 27.7612 84.3901 19.9195 73.0006 21.4124Z" fill="black"/>
<path d="M68.0001 0.0129107C76.8276 -0.293506 96.4343 4.70555 95.4744 31.0062C94.5817 21.9209 86.0838 3.77338 68.0001 0.0129107Z" fill="black"/>
<path d="M96.7337 34.0118C102.851 37.9503 113.892 50.366 101.452 66.9016C104.92 60.6159 107.298 44.914 96.7337 34.0118Z" fill="black"/>
<path d="M98.0017 31.5313C105.948 26.6675 126.477 20.9589 138.934 45.0487C133.507 37.3635 116.505 25.5035 98.0017 31.5313Z" fill="black"/>
<path d="M97.003 31.7459C101.713 22.9232 117.486 6.40415 141.536 21.5939C132.535 17.5473 110.756 16.0493 97.003 31.7459Z" fill="black"/>
</svg>
