<svg width="134" height="148" viewBox="0 0 134 148" fill="none" xmlns="http://www.w3.org/2000/svg">
<path d="M87.5 33.5C-30.9632 47.4673 -25.5 137.5 87.5 148C60.5 135.5 -67.5 93.5 87.5 33.5Z" fill="white"/>
<path d="M42 78.5C42 82.6421 38.6422 86 34.5 86C30.3579 86 27 82.6421 27 78.5C27 74.3579 30.3579 71 34.5 71C38.6422 71 42 74.3579 42 78.5Z" fill="white"/>
<path d="M27 100.349C26.9999 84.6834 39.9002 83.8987 57.5 97.5C33.8291 89.808 33.5 92.5 33.5 100.349C33.5 119.779 68.0572 106.641 58 128.5C51 107.5 27.0001 121.236 27 100.349Z" fill="white"/>
<path d="M78 82.5C78 85.5376 80.4625 88 83.5 88C86.5376 88 89 85.5376 89 82.5C89 79.4624 86.5376 77 83.5 77C80.4625 77 78 79.4624 78 82.5Z" fill="white"/>
<path d="M91 103.242C91.0001 87.6971 78.5675 84.4427 61.1616 97.9395C76.0809 92.1551 85.5296 90 85.5296 103.242C85.5296 122.523 52.5536 107.309 62.5 129C63.4945 112.129 90.9999 123.969 91 103.242Z" fill="white"/>
<path d="M90 32.469C100 32.3023 120.5 32.469 115.5 62.5C108 47.5 113 42 90 32.469Z" fill="white"/>
<path d="M84.2113 0.109248C94.5 5.10734 100.053 13.7778 89.8063 28.9035C92.5896 23.209 90.5 11.6073 84.2113 0.109248Z" fill="white"/>
<path d="M66.0006 20.8681C72 18.5 83.7082 17.8844 87.4656 31.785C79.5 29.5 83 20 66.0006 20.8681Z" fill="white"/>
<path d="M58.0003 0.147466C66.7917 -0.707417 86.6713 3.06245 87.3492 29.3719C85.8931 20.3597 76.2829 2.77587 58.0003 0.147466Z" fill="white"/>
<path d="M89.7338 34C97.5001 39.5324 108 44 97 64C94.2338 46 99 47.5324 89.7338 34Z" fill="white"/>
<path d="M92.0015 30.3652C100.325 26.1797 121.258 22.2001 131.666 47.2433C116.5 37 110.943 25.8987 92.0015 30.3652Z" fill="white"/>
<path d="M92.003 28.8548C97.2042 20.3122 109.5 9 134 26C118.5 28 114.5 15.5 92.003 28.8548Z" fill="white"/>
</svg>
